<svg xmlns="http://www.w3.org/2000/svg" viewBox="0 0 64 64" role="img" aria-label="MoonV2 Studio">
  <!-- Solid black background -->
  <rect width="64" height="64" rx="16" fill="#080808"/>
  
  <!-- Crescent Moon shape -->
  <path d="M42,18 C46.418,18 50,21.582 50,26 C50,23 48.5,20.5 46,19 C42,16 34,16 28,21 C22,26 21,34 25,39 C29.5,44.5 38,45 43,40 C45.5,37.5 47,34.5 47,31 C47,36 43.418,40 39,40 C31.268,40 25,33.732 25,26 C25,18.268 31.268,12 39,12 C40.063,12 41.099,12.118 42.091,12.336 C42.03,14.185 42,16.082 42,18 Z" fill="#aa3bff" />

  <!-- V2 Monogram -->
  <text x="32" y="52" font-family="'Inter', 'Outfit', sans-serif" font-weight="900" font-size="14" fill="#f5f5f5" text-anchor="middle" letter-spacing="1">V2</text>
</svg>
