<svg xmlns="http://www.w3.org/2000/svg" viewBox="0 0 64 64" role="img" aria-label="MOONV2 Studio">
  <defs>
    <radialGradient id="bg" cx="32%" cy="24%" r="78%">
      <stop offset="0" stop-color="#2a1640"/>
      <stop offset="0.58" stop-color="#09070f"/>
      <stop offset="1" stop-color="#050407"/>
    </radialGradient>
    <linearGradient id="bolt" x1="21" y1="7" x2="45" y2="57" gradientUnits="userSpaceOnUse">
      <stop offset="0" stop-color="#f2e7ff"/>
      <stop offset="0.36" stop-color="#c77dff"/>
      <stop offset="1" stop-color="#aa3bff"/>
    </linearGradient>
    <filter id="glow" x="-45%" y="-45%" width="190%" height="190%">
      <feGaussianBlur stdDeviation="3.2" result="blur"/>
      <feColorMatrix in="blur" type="matrix" values="0 0 0 0 0.67 0 0 0 0 0.23 0 0 0 0 1 0 0 0 .85 0"/>
      <feMerge>
        <feMergeNode/>
        <feMergeNode in="SourceGraphic"/>
      </feMerge>
    </filter>
  </defs>
  <rect width="64" height="64" rx="14" fill="url(#bg)"/>
  <path d="M42.4 11.6c-3.2-1.7-7-2.4-10.9-1.7C20.6 11.8 13.2 22.1 15.1 33c1.9 10.8 12.2 18.2 23.1 16.3 4-.7 7.5-2.5 10.2-5.1-2.1.9-4.4 1.4-6.9 1.4-10 0-18.1-8.1-18.1-18.1 0-7.3 4.3-13.6 10.5-16.5 2.6-1.2 5.5-1.7 8.5-1.4z" fill="#f5f5f5" opacity=".9"/>
  <path filter="url(#glow)" fill="url(#bolt)" d="M35.9 6 17.6 34.4h13.1l-4.2 23.5 20-32.2H33.1L35.9 6z"/>
  <path fill="#080808" opacity=".42" d="M31.1 30.1 35.9 6 17.6 34.4h13.1l-4.2 23.5 7.7-27.8h-3.1z"/>
</svg>
